<svg xmlns="http://www.w3.org/2000/svg" width="47.457" height="13.543" viewBox="0 0 47.457 13.543">
  <g id="Group_2" data-name="Group 2" transform="translate(-146.663 -660)">
    <path id="Path_4" data-name="Path 4" d="M-19.349-17.6v1.01h.555a1.735,1.735,0,0,0,.308-.025.735.735,0,0,0,.241-.084.4.4,0,0,0,.155-.16.523.523,0,0,0,.054-.248.412.412,0,0,0-.185-.372,1.074,1.074,0,0,0-.572-.12Zm0,1.573v1.275h-.62v-3.412h1.308a1.679,1.679,0,0,1,.577.088,1.149,1.149,0,0,1,.4.233.926.926,0,0,1,.23.332,1.034,1.034,0,0,1,.075.389,1.12,1.12,0,0,1-.077.412.961.961,0,0,1-.237.349,1.167,1.167,0,0,1-.4.242,1.6,1.6,0,0,1-.564.09Z" transform="translate(188.838 687.208)" fill="#fff"/>
    <path id="Path_5" data-name="Path 5" d="M-89.96-70.278a1.294,1.294,0,0,0,.088-.488,1.3,1.3,0,0,0-.088-.488,1.116,1.116,0,0,0-.243-.374,1.07,1.07,0,0,0-.366-.24,1.232,1.232,0,0,0-.46-.084,1.22,1.22,0,0,0-.456.084,1.07,1.07,0,0,0-.366.24,1.114,1.114,0,0,0-.243.374,1.294,1.294,0,0,0-.088.488,1.293,1.293,0,0,0,.088.488,1.112,1.112,0,0,0,.243.374,1.067,1.067,0,0,0,.366.24,1.218,1.218,0,0,0,.456.084,1.23,1.23,0,0,0,.46-.084,1.068,1.068,0,0,0,.366-.24,1.114,1.114,0,0,0,.243-.374m.742-.488a1.8,1.8,0,0,1-.133.7,1.681,1.681,0,0,1-.374.56,1.734,1.734,0,0,1-.572.372,1.927,1.927,0,0,1-.732.135,1.926,1.926,0,0,1-.732-.135,1.733,1.733,0,0,1-.572-.372,1.679,1.679,0,0,1-.374-.56,1.8,1.8,0,0,1-.133-.7,1.805,1.805,0,0,1,.133-.694,1.652,1.652,0,0,1,.374-.56,1.78,1.78,0,0,1,.572-.372,1.9,1.9,0,0,1,.732-.137,1.9,1.9,0,0,1,.732.137,1.781,1.781,0,0,1,.572.372,1.654,1.654,0,0,1,.374.56,1.806,1.806,0,0,1,.133.694" transform="translate(264.662 741.507)" fill="#fff"/>
    <path id="Path_6" data-name="Path 6" d="M-7.659-83.941a1.207,1.207,0,0,0,.211.107,1.938,1.938,0,0,0,.256.082q.136.034.278.055a1.9,1.9,0,0,0,.28.021A1.613,1.613,0,0,0-6.34-83.7a.777.777,0,0,0,.235-.08.444.444,0,0,0,.157-.141.356.356,0,0,0,.058-.2.335.335,0,0,0-.047-.181.419.419,0,0,0-.133-.13.865.865,0,0,0-.209-.093q-.123-.038-.273-.076l-.288-.072a1.388,1.388,0,0,1-.719-.374A.913.913,0,0,1-7.8-85.7a.8.8,0,0,1,.09-.379.868.868,0,0,1,.258-.3,1.254,1.254,0,0,1,.4-.191,1.854,1.854,0,0,1,.516-.067,2.476,2.476,0,0,1,.334.023,2.733,2.733,0,0,1,.329.065,3.086,3.086,0,0,1,.3.1,1.6,1.6,0,0,1,.256.122l-.245.534a1.673,1.673,0,0,0-.46-.194,2.007,2.007,0,0,0-.521-.072,1.171,1.171,0,0,0-.237.023.728.728,0,0,0-.2.069.388.388,0,0,0-.136.116.272.272,0,0,0-.049.162.323.323,0,0,0,.131.269,1.173,1.173,0,0,0,.424.172l.293.072a2.713,2.713,0,0,1,.415.139,1.313,1.313,0,0,1,.342.21.954.954,0,0,1,.232.3.885.885,0,0,1,.086.4.885.885,0,0,1-.105.438.948.948,0,0,1-.288.318,1.359,1.359,0,0,1-.437.2,2.146,2.146,0,0,1-.551.067,2.893,2.893,0,0,1-.364-.023,3.3,3.3,0,0,1-.351-.063,2.641,2.641,0,0,1-.314-.095,1.55,1.55,0,0,1-.258-.122Z" transform="translate(183.671 755.607)" fill="#fff"/>
    <path id="Path_7" data-name="Path 7" d="M-57.241-18a1.4,1.4,0,0,0-.45.072,1.041,1.041,0,0,0-.374.219,1.047,1.047,0,0,0-.256.37,1.339,1.339,0,0,0-.095.526,1.339,1.339,0,0,0,.095.526,1.067,1.067,0,0,0,.256.372,1.024,1.024,0,0,0,.374.221,1.4,1.4,0,0,0,.45.072,1.6,1.6,0,0,0,.48-.069,1.782,1.782,0,0,0,.411-.187l.241.539a1.968,1.968,0,0,1-.525.212,2.52,2.52,0,0,1-.633.078,2.024,2.024,0,0,1-.749-.133,1.63,1.63,0,0,1-.57-.37,1.645,1.645,0,0,1-.361-.56,1.892,1.892,0,0,1-.127-.7,1.892,1.892,0,0,1,.127-.7,1.646,1.646,0,0,1,.361-.56,1.631,1.631,0,0,1,.57-.37,2.023,2.023,0,0,1,.749-.133,2.46,2.46,0,0,1,.633.08,2.02,2.02,0,0,1,.525.215l-.241.534a1.9,1.9,0,0,0-.411-.183,1.6,1.6,0,0,0-.48-.069" transform="translate(237.875 687.551)" fill="#fff"/>
    <path id="Path_8" data-name="Path 8" d="M1225.3-580.684h.6v3.412h-.6Z" transform="translate(-1043.1 1249.725)" fill="#fff"/>
    <path id="Path_9" data-name="Path 9" d="M-32.114-58.522a.725.725,0,0,0,.284.053.725.725,0,0,0,.284-.053.642.642,0,0,0,.213-.143.621.621,0,0,0,.136-.215.731.731,0,0,0,.047-.263.732.732,0,0,0-.047-.263.622.622,0,0,0-.136-.215.67.67,0,0,0-.213-.145.7.7,0,0,0-.284-.055.7.7,0,0,0-.284.055.668.668,0,0,0-.213.145.62.62,0,0,0-.136.215.73.73,0,0,0-.047.263.73.73,0,0,0,.047.263.618.618,0,0,0,.136.215.64.64,0,0,0,.213.143m.8.532a1.368,1.368,0,0,1-.519.1,1.368,1.368,0,0,1-.519-.1,1.323,1.323,0,0,1-.415-.263,1.2,1.2,0,0,1-.278-.4,1.211,1.211,0,0,1-.1-.494,1.2,1.2,0,0,1,.1-.492,1.257,1.257,0,0,1,.278-.4,1.287,1.287,0,0,1,.415-.267,1.368,1.368,0,0,1,.519-.1,1.368,1.368,0,0,1,.519.1,1.287,1.287,0,0,1,.415.267,1.258,1.258,0,0,1,.278.4,1.2,1.2,0,0,1,.1.492,1.212,1.212,0,0,1-.1.494,1.2,1.2,0,0,1-.278.4,1.323,1.323,0,0,1-.415.263" transform="translate(216.436 730.396)" fill="#fff"/>
    <path id="Path_10" data-name="Path 10" d="M-47.835,0h.6V2.247q-.129.042-.25.074t-.243.055a2.417,2.417,0,0,1-.256.034q-.133.01-.288.011a1.839,1.839,0,0,1-.432-.048.923.923,0,0,1-.349-.162.766.766,0,0,1-.232-.3,1.121,1.121,0,0,1-.084-.463V0h.6V1.279a.659.659,0,0,0,.112.444.481.481,0,0,0,.366.12,1.831,1.831,0,0,0,.209-.013,1.872,1.872,0,0,0,.243-.046Z" transform="translate(235.707 670.085)" fill="#fff"/>
    <path id="Path_11" data-name="Path 11" d="M-26.337-53.2a.617.617,0,0,0-.211.513.6.6,0,0,0,.211.507.909.909,0,0,0,.568.162,1.768,1.768,0,0,0,.374-.046V-53.32a1.482,1.482,0,0,0-.2-.04,1.5,1.5,0,0,0-.172-.011.885.885,0,0,0-.568.168m.942-1.7h.6v3.34a3.721,3.721,0,0,1-.973.122,1.757,1.757,0,0,1-.6-.095,1.3,1.3,0,0,1-.445-.263,1.113,1.113,0,0,1-.278-.4,1.266,1.266,0,0,1-.095-.492,1.258,1.258,0,0,1,.1-.494,1.169,1.169,0,0,1,.278-.4,1.305,1.305,0,0,1,.432-.267,1.555,1.555,0,0,1,.562-.1q.082,0,.187.008t.23.025Z" transform="translate(216.145 723.947)" fill="#fff"/>
    <path id="Path_12" data-name="Path 12" d="M-1.612-81.181a1.819,1.819,0,0,0,.2.069q.11.032.226.057t.226.038A1.757,1.757,0,0,0-.76-81a1.3,1.3,0,0,0,.254-.023.656.656,0,0,0,.2-.072.376.376,0,0,0,.131-.122A.324.324,0,0,0-.128-81.4v-.05a2.388,2.388,0,0,1-.482.05,2.008,2.008,0,0,1-.426-.042.812.812,0,0,1-.334-.151.711.711,0,0,1-.217-.3,1.277,1.277,0,0,1-.077-.48v-1.409h.607v1.241a1.1,1.1,0,0,0,.028.271.41.41,0,0,0,.086.173A.317.317,0,0,0-.795-82a.746.746,0,0,0,.215.027,1.832,1.832,0,0,0,.209-.013,1.549,1.549,0,0,0,.243-.05v-1.742h.6v2.192a1.927,1.927,0,0,1-.062.53.732.732,0,0,1-.209.347.875.875,0,0,1-.387.191,2.591,2.591,0,0,1-.6.059q-.073,0-.164-.008t-.185-.023q-.095-.015-.185-.034t-.164-.04Z" transform="translate(193.646 753.861)" fill="#fff"/>
    <path id="Path_13" data-name="Path 13" d="M-491.668-158.137h1.129l1.294,0a.267.267,0,0,1,.259.144.229.229,0,0,1-.026.271.54.54,0,0,1-.169.1.2.2,0,0,1-.078,0h-17.836a.262.262,0,1,1-.049-.516c.261,0,.523,0,.784,0,.424,0,.847,0,1.271,0,.151,0,.3-.012.454-.014.061,0,.085-.026.1-.085a5.9,5.9,0,0,1,1.094-2.542c1.991-2.62,5.972-3.056,8.789-1.594a5.692,5.692,0,0,1,2.987,4.236" transform="translate(654.837 827.589)" fill="#01c3b7"/>
    <path id="Path_14" data-name="Path 14" d="M-50.717-18.471c-.444,0-.889,0-1.333,0a.294.294,0,0,1-.125-.558A.451.451,0,0,1-52-19.061q1.286,0,2.572,0a.3.3,0,1,1,.053.592c-.447-.006-.894,0-1.341,0" transform="translate(213.304 690.264)" fill="#fff"/>
    <path id="Path_15" data-name="Path 15" d="M-8.351,0h.066a.333.333,0,0,1,.262.314q0,.87,0,1.739a.307.307,0,0,1-.305.311.3.3,0,0,1-.289-.316q0-.827,0-1.653c0-.251.036-.3.267-.4" transform="translate(165.049 660)" fill="#fff"/>
    <path id="Path_16" data-name="Path 16" d="M0-10.97v-.123c.1-.235.255-.261.484-.2q.8.171,1.591.346a.3.3,0,0,1,.088.553.351.351,0,0,1-.257.019c-.541-.12-1.081-.241-1.624-.353A.373.373,0,0,1,0-10.97" transform="translate(146.663 677.126)" fill="#fff"/>
    <path id="Path_17" data-name="Path 17" d="M-156.223-19.274h-4.667a.308.308,0,1,1-.044-.614q4.694-.006,9.389,0a.313.313,0,0,1,.323.425.288.288,0,0,1-.271.191q-2.365,0-4.73,0" transform="translate(310.567 691.052)" fill="#fff"/>
    <path id="Path_18" data-name="Path 18" d="M-67.52-.116h1.873a.279.279,0,0,1,.278.2.3.3,0,0,1-.3.394q-1.854.006-3.708,0a.3.3,0,0,1-.106-.58c.649-.036,1.306,0,1.957-.013" transform="translate(222.099 673.064)" fill="#fff"/>
    <path id="Path_19" data-name="Path 19" d="M-50.815-.084c.437,0,.873.006,1.31,0A.3.3,0,0,1-49.187.2.305.305,0,0,1-49.5.51h-2.619a.307.307,0,0,1-.316-.257.293.293,0,0,1,.322-.336h1.3" transform="translate(210.186 673.032)" fill="#fff"/>
    <path id="Path_20" data-name="Path 20" d="M-9.747-29.942a.3.3,0,0,1-.309-.247.291.291,0,0,1,.22-.332c.477-.106.955-.209,1.432-.313.109-.024.217-.052.327-.065a.294.294,0,0,1,.092.58c-.587.122-1.174.269-1.762.377" transform="translate(174.475 696.744)" fill="#fff"/>
    <path id="Path_21" data-name="Path 21" d="M-46.271-37.257a.3.3,0,0,1-.49.212q-.462-.452-.914-.915a.3.3,0,0,1,.436-.4c.2.193.393.391.589.586.1.1.192.192.288.289a.284.284,0,0,1,.092.225" transform="translate(198.466 700.394)" fill="#fff"/>
    <path id="Path_22" data-name="Path 22" d="M-46.85-9.588a.806.806,0,0,1-.1.193c-.295.3-.595.6-.9.9a.3.3,0,0,1-.412-.421q.444-.447.892-.891a.312.312,0,0,1,.521.221" transform="translate(209.65 671.84)" fill="#fff"/>
    <path id="Path_23" data-name="Path 23" d="M-57.51-101.018a.327.327,0,0,1,.237.1.317.317,0,0,1,.1.236.306.306,0,0,1-.1.229.33.33,0,0,1-.237.095.328.328,0,0,1-.239-.095.309.309,0,0,1-.1-.229.321.321,0,0,1,.1-.236.324.324,0,0,1,.239-.1m-.77,0a.327.327,0,0,1,.237.1.317.317,0,0,1,.1.236.306.306,0,0,1-.1.229.33.33,0,0,1-.237.095.328.328,0,0,1-.239-.095.309.309,0,0,1-.1-.229.321.321,0,0,1,.1-.236.325.325,0,0,1,.239-.1m-.409-1.489a.666.666,0,0,0,.2.555,1.2,1.2,0,0,0,.712.156q.693,0,.693-.353a.187.187,0,0,0-.08-.162,1.389,1.389,0,0,0-.342-.137,1.184,1.184,0,0,1-.577-.339.854.854,0,0,1-.181-.566.829.829,0,0,1,.318-.707,1.113,1.113,0,0,1,.684-.194,1.72,1.72,0,0,1,.508.072v.484a1.672,1.672,0,0,0-.374-.05.57.57,0,0,0-.359.105.334.334,0,0,0-.136.278.319.319,0,0,0,.088.248,1.618,1.618,0,0,0,.407.21,1.767,1.767,0,0,1,.512.282.6.6,0,0,1,.194.459.782.782,0,0,1-.46.736,1.735,1.735,0,0,1-.8.168h-.379a1.532,1.532,0,0,1-.8-.2,1.057,1.057,0,0,1-.486-.963v-.311l.336-.261h.327Z" transform="translate(228.395 767.851)" fill="#fff"/>
    <path id="Path_24" data-name="Path 24" d="M-13.571-.788a1.48,1.48,0,0,1,.31-.025,1.15,1.15,0,0,1,.852.324,1,1,0,0,1,.288.736v.4a.488.488,0,0,1-.172.383.525.525,0,0,1-.361.139h-1.351V.63h1.162a.053.053,0,0,0,.06-.059V.3a.575.575,0,0,0-.161-.421.563.563,0,0,0-.42-.164.977.977,0,0,0-.207.017Z" transform="translate(186.341 664.411)" fill="#fff"/>
    <path id="Path_25" data-name="Path 25" d="M-39.1-24.7a.243.243,0,0,0-.073-.181.237.237,0,0,0-.172-.067.316.316,0,0,0-.258.116.5.5,0,0,0-.095.322.574.574,0,0,0,.112.368A.356.356,0,0,0-39.3-24a.708.708,0,0,0,.194-.029Zm-.022,1.2a1.162,1.162,0,0,1-.267.034.892.892,0,0,1-.723-.358,1.027,1.027,0,0,1-.241-.669.978.978,0,0,1,.267-.707,1,1,0,0,1,.744-.29.985.985,0,0,1,.585.168.707.707,0,0,1,.318.618v1.048a1.066,1.066,0,0,1-.4.883,1.281,1.281,0,0,1-.835.269l-.112-.008-.271-.332v-.223a.3.3,0,0,0,.047.008,1.088,1.088,0,0,0,.2.021.748.748,0,0,0,.538-.185.591.591,0,0,0,.146-.278" transform="translate(215.068 689.085)" fill="#fff"/>
    <path id="Path_26" data-name="Path 26" d="M-74.709,0V2.352q0,.038,0,.118h.215v.543h-.164l-.159-.194h-.013a.487.487,0,0,1-.2.147.5.5,0,0,1-.207.046h-1.6l-.271-.328V2.47h.947l-.68-1.952h.607l.68,1.952h.116a.065.065,0,0,0,.047-.017.1.1,0,0,0,.013-.042V0Z" transform="translate(254.119 662.572)" fill="#fff"/>
    <path id="Path_27" data-name="Path 27" d="M1142.256-709.046h-.8v-.543h.8Z" transform="translate(-961.862 1374.63)" fill="#fff"/>
    <path id="Path_28" data-name="Path 28" d="M1166.946-709.046h-.8v-.543h.8Z" transform="translate(-985.785 1374.63)" fill="#fff"/>
    <path id="Path_29" data-name="Path 29" d="M1191.626-709.046h-.8v-.543h.8Z" transform="translate(-1009.7 1374.63)" fill="#fff"/>
    <path id="Path_30" data-name="Path 30" d="M1216.306-709.046h-.8v-.543h.8Z" transform="translate(-1033.614 1374.63)" fill="#fff"/>
    <path id="Path_31" data-name="Path 31" d="M-66.916,0V.61l-.74.454a1.837,1.837,0,0,1,.74.639,1.407,1.407,0,0,1,.263.8.579.579,0,0,1-.151.41.505.505,0,0,1-.387.162h-1.868V2.533h1.674q.06,0,.06-.063a.834.834,0,0,0-.323-.618,1.448,1.448,0,0,0-.848-.366.038.038,0,0,1-.039-.042V.917Z" transform="translate(251.721 662.508)" fill="#fff"/>
    <path id="Path_32" data-name="Path 32" d="M-40.176,0a.331.331,0,0,1,.237.095.31.31,0,0,1,.1.233.312.312,0,0,1-.1.231.327.327,0,0,1-.237.1.332.332,0,0,1-.241-.1.312.312,0,0,1-.1-.231.312.312,0,0,1,.1-.231.332.332,0,0,1,.241-.1m.331.926V2.7a1.069,1.069,0,0,1-.366.867,1.272,1.272,0,0,1-.512.257,1.512,1.512,0,0,1-.357.038l-.112-.008-.271-.332V3.3a.3.3,0,0,0,.047.008,1.089,1.089,0,0,0,.2.021.759.759,0,0,0,.529-.177.706.706,0,0,0,.176-.526V.926Z" transform="translate(227.512 662.723)" fill="#fff"/>
    <path id="Path_33" data-name="Path 33" d="M-39.1-24.7a.235.235,0,0,0-.1-.2.245.245,0,0,0-.146-.046.313.313,0,0,0-.256.12.49.49,0,0,0-.1.318.412.412,0,0,0,.469.463h.129Zm-.275,1.195a.936.936,0,0,1-.736-.316.932.932,0,0,1-.241-.644,1,1,0,0,1,.254-.732,1.031,1.031,0,0,1,.757-.294,1.01,1.01,0,0,1,.559.147.717.717,0,0,1,.344.639v.656h.138v.543h-.142a1.03,1.03,0,0,1-.379.724,1.2,1.2,0,0,1-.491.236,1.683,1.683,0,0,1-.417.05,1.635,1.635,0,0,1-.2-.013l-.288-.345v-.227a1.825,1.825,0,0,0,.379.042q.6,0,.714-.467Z" transform="translate(228.559 689.085)" fill="#fff"/>
    <path id="Path_34" data-name="Path 34" d="M1484.776-709.046h-.8v-.543h.8Z" transform="translate(-1293.752 1374.63)" fill="#fff"/>
    <path id="Path_35" data-name="Path 35" d="M1509.456-709.046h-.8v-.543h.8Z" transform="translate(-1317.667 1374.63)" fill="#fff"/>
    <path id="Path_36" data-name="Path 36" d="M1534.136-709.046h-.8v-.543h.8Z" transform="translate(-1341.581 1374.63)" fill="#fff"/>
    <path id="Path_37" data-name="Path 37" d="M-31.845-66.469a.327.327,0,0,1,.237.1.317.317,0,0,1,.1.236.312.312,0,0,1-.1.231.327.327,0,0,1-.237.1.325.325,0,0,1-.239-.1.316.316,0,0,1-.1-.231.321.321,0,0,1,.1-.236.324.324,0,0,1,.239-.1m.417-2.129v1.414a.5.5,0,0,1-.125.332.523.523,0,0,1-.413.189h-.9v-.543h.71a.071.071,0,0,0,.043-.013.056.056,0,0,0,.022-.046V-68.6Z" transform="translate(225.39 732.246)" fill="#fff"/>
  </g>
</svg>
